<?xml version="1.0" encoding="UTF-8" standalone="no"?>
<svg
   xmlns:dc="http://purl.org/dc/elements/1.1/"
   xmlns:cc="http://creativecommons.org/ns#"
   xmlns:rdf="http://www.w3.org/1999/02/22-rdf-syntax-ns#"
   xmlns:svg="http://www.w3.org/2000/svg"
   xmlns="http://www.w3.org/2000/svg"
   viewBox="0 0 500 500"
   height="500"
   width="500"
   xml:space="preserve"
   id="svg2"
   version="1.1"><metadata
     id="metadata8"><rdf:RDF><cc:Work
         rdf:about=""><dc:format>image/svg+xml</dc:format><dc:type
           rdf:resource="http://purl.org/dc/dcmitype/StillImage" /></cc:Work></rdf:RDF></metadata><defs
     id="defs6"><clipPath
       id="clipPath14"
       clipPathUnits="userSpaceOnUse"><path
         id="path12"
         d="M 0,8.039989 H 375 V 383.03998 H 0 Z" /></clipPath><clipPath
       id="clipPath24"
       clipPathUnits="userSpaceOnUse"><path
         style="clip-rule:evenodd"
         id="path22"
         d="M 0,0 H 1562.5 V 1593.75 H 0 Z" /></clipPath><clipPath
       id="clipPath36"
       clipPathUnits="userSpaceOnUse"><path
         style="clip-rule:evenodd"
         id="path34"
         d="M 0,0 H 1562.5 V 1562.5 H 0 Z" /></clipPath><clipPath
       id="clipPath48"
       clipPathUnits="userSpaceOnUse"><path
         style="clip-rule:evenodd"
         id="path46"
         d="M 0,0 H 1562.5 V 1562.5 H 0 Z" /></clipPath><clipPath
       id="clipPath60"
       clipPathUnits="userSpaceOnUse"><path
         id="path58"
         d="M 0,0 H 1562.5 V 1593.75 H 0 Z" /></clipPath><clipPath
       id="clipPath66"
       clipPathUnits="userSpaceOnUse"><path
         id="path64"
         d="M 0,0 H 1562.5 V 1562.5 H 0 Z" /></clipPath><clipPath
       id="clipPath72"
       clipPathUnits="userSpaceOnUse"><path
         id="path70"
         d="M 0,0 H 1562.5 V 1562.5 H 0 Z" /></clipPath><clipPath
       id="clipPath78"
       clipPathUnits="userSpaceOnUse"><path
         id="path76"
         d="M 302.17093,310.33783 H 1243.9953 V 1252.1621 H 302.17093 Z" /></clipPath><clipPath
       id="clipPath84"
       clipPathUnits="userSpaceOnUse"><path
         id="path82"
         d="m 773.08313,310.33783 c -260.07764,0 -470.9122,210.83453 -470.9122,470.91217 0,260.0776 210.83456,470.9121 470.9122,470.9121 260.07747,0 470.91207,-210.8345 470.91207,-470.9121 0,-260.07764 -210.8346,-470.91217 -470.91207,-470.91217" /></clipPath><clipPath
       id="clipPath96"
       clipPathUnits="userSpaceOnUse"><path
         style="clip-rule:evenodd"
         id="path94"
         d="M 0,0 H 1562.5 V 1562.5 H 0 Z" /></clipPath><clipPath
       id="clipPath104"
       clipPathUnits="userSpaceOnUse"><path
         id="path102"
         d="M 0,0 H 798 V 782 H 0 Z" /></clipPath><clipPath
       id="clipPath108"
       clipPathUnits="userSpaceOnUse"><path
         id="path106"
         d="M 0.44763184,0.25 H 797.32263 V 797.125 H 0.44763184 Z" /></clipPath><clipPath
       id="clipPath112"
       clipPathUnits="userSpaceOnUse"><path
         id="path110"
         d="m 797.32263,398.69067 c 0,220.04114 -178.39001,398.4311 -398.4375,398.4311 C 178.83447,797.12177 0.44763184,618.73175 0.44763184,398.69067 0.44763184,178.63844 178.83447,0.25 398.88513,0.25 c 220.05066,0 398.4375,178.38844 398.4375,398.44067 z" /></clipPath><clipPath
       id="clipPath134"
       clipPathUnits="userSpaceOnUse"><path
         style="clip-rule:evenodd"
         id="path132"
         d="m 629.11084,599.17004 h 325 v 93.75 h -325 z" /></clipPath><clipPath
       id="clipPath154"
       clipPathUnits="userSpaceOnUse"><path
         style="clip-rule:evenodd"
         id="path152"
         d="M 0,0 H 1562.5 V 1562.5 H 0 Z" /></clipPath></defs><g
     clip-path="url(#clipPath14)"
     transform="matrix(1.3333333,0,0,-1.3333333,0,510.71997)"
     id="g10"><g
       transform="matrix(0.31999998,0,0,0.31999998,0,9.434666e-6)"
       id="g16"><g
         id="g18"><g
           clip-path="url(#clipPath24)"
           id="g20"><g
             transform="scale(3.125)"
             id="g26"><path
               id="path28"
               style="fill:#ffffff;fill-opacity:1;fill-rule:nonzero;stroke:none"
               d="M 0,0 H 500 V 510 H 0 Z" /></g></g></g><g
         id="g30"><g
           clip-path="url(#clipPath36)"
           id="g32"><g
             transform="scale(3.125)"
             id="g38"><path
               id="path40"
               style="fill:#ffffff;fill-opacity:1;fill-rule:nonzero;stroke:none"
               d="M 0,0 H 500 V 500 H 0 Z" /></g></g></g><g
         id="g42"><g
           clip-path="url(#clipPath48)"
           id="g44"><g
             transform="scale(3.125)"
             id="g50"><path
               id="path52"
               style="fill:#ffffff;fill-opacity:1;fill-rule:nonzero;stroke:none"
               d="M 0,0 H 500 V 500 H 0 Z" /></g></g></g><g
         id="g54"><g
           clip-path="url(#clipPath60)"
           id="g56"><g
             clip-path="url(#clipPath66)"
             id="g62"><g
               clip-path="url(#clipPath72)"
               id="g68"><g
                 clip-path="url(#clipPath78)"
                 id="g74"><g
                   clip-path="url(#clipPath84)"
                   id="g80"><g
                     transform="matrix(14.716005,0,0,14.716005,302.17093,310.33783)"
                     id="g86"><path
                       id="path88"
                       style="fill:#ffffff;fill-opacity:1;fill-rule:nonzero;stroke:none"
                       d="M 0,0 H 64 V 64 H 0 Z" /></g></g></g></g></g></g></g><g
         id="g90"><g
           clip-path="url(#clipPath96)"
           id="g92"><g
             transform="translate(393,781)"
             id="g98"><g
               id="g100" /><g
               id="g126"><g
                 style="opacity:0.97649997"
                 id="g124"
                 clip-path="url(#clipPath104)"><g
                   id="g122"><g
                     id="g120"
                     clip-path="url(#clipPath108)"><g
                       id="g118"
                       clip-path="url(#clipPath112)"><g
                         id="g116"
                         transform="matrix(1.59375,0,0,1.59375,0.44763184,0.25)"><path
                           id="path114"
                           style="fill:#ffffff;fill-opacity:1;fill-rule:nonzero;stroke:none"
                           d="M 0,0 H 500 V 500 H 0 Z" /></g></g></g></g></g></g></g></g></g><g
         id="g128"><g
           clip-path="url(#clipPath134)"
           id="g130"><g
             transform="matrix(0.20785861,0,0,0.20874572,373.13391,376.40314)"
             id="g136"><path
               id="path138"
               style="fill:#3d3b3a;fill-opacity:1;fill-rule:evenodd;stroke:none"
               d="m 1255.29,1511.96 637.74,-412.58 c 0,0 637.74,412.58 637.74,412.58 6.6001,4.27 15.43,2.38 19.7,-4.22 4.27,-6.6 2.3801,-15.4299 -4.23,-19.7 0,0 -645.47,-417.58 -645.47,-417.58 -4.7099,-3.05 -10.77,-3.05 -15.47,0 0,0 -645.48,417.58 -645.48,417.58 -6.6,4.2701 -8.49,13.1 -4.22,19.7 4.27,6.6 13.0899,8.49 19.69,4.22 z" /></g><g
             transform="matrix(0.19159694,0,0,0.19241466,461.08514,395.83966)"
             id="g140"><path
               id="path142"
               style="fill:#3d3b3a;fill-opacity:1;fill-rule:evenodd;stroke:none"
               d="m 1765.71,1183.2 127.26,-82.34 c 0,0 654.1201,429.12 654.1201,429.12 7.1299,4.68 16.72,2.69 21.3999,-4.45 4.6699,-7.13 2.6799,-16.71 -4.45,-21.39 0,0 -662.53,-434.64 -662.53,-434.64 -5.12,-3.36 -11.73,-3.38 -16.87,-0.06 0,0 -56.34,36.4501 -135.72,87.8101 -7.16,4.63 -9.22,14.2 -4.58,21.37 4.63,7.16 14.21,9.21 21.37,4.58 z" /></g><g
             transform="matrix(1.042968,0,0,1.525725,-368.08209,-2009.9366)"
             id="g144"><path
               id="path146"
               style="fill:#3d3b3a;fill-opacity:1;fill-rule:evenodd;stroke:none"
               d="m 1029.89,1738.52 v -14.72 c 0,-1.07 -1.27,-1.94 -2.8299,-1.94 H 1003.41 c -1.57,0 -2.83,0.87 -2.83,1.94 v 25.91 c 0,1.07 1.26,1.94 2.83,1.94 1.56,0 2.83,-0.87 2.83,-1.94 v -23.97 c 0,0 17.99,0 17.99,0 v 12.78 c 0,1.07 1.27,1.94 2.8301,1.94 1.5599,0 2.8299,-0.87 2.8299,-1.94 z" /></g></g></g><g
         id="g148"><g
           clip-path="url(#clipPath154)"
           id="g150"><g
             transform="matrix(3.4380577,0,0,3.4380577,126.8112,683.86407)"
             id="g156"><text
               id="text160"
               style="font-variant:normal;font-weight:500;font-size:25.67000008px;font-family:CormorantGaramond;-inkscape-font-specification:CormorantGaramond-Medium;writing-mode:lr-tb;fill:#000000;fill-opacity:1;fill-rule:nonzero;stroke:none"
               transform="translate(113.23438,25)"><tspan
                 id="tspan158"
                 y="0"
                 x="0 17.577324 39.490555 56.041634 65.896439 87.322197 109.23543 125.78651 147.69974">LAS CASAS</tspan></text>
</g><g
             transform="matrix(3.125,0,0,3.125,364.01047,709.375)"
             id="g162"><text
               id="text166"
               style="font-variant:normal;font-weight:normal;font-size:56px;font-family:TheBigmaker;-inkscape-font-specification:TheBigmaker;writing-mode:lr-tb;fill:#000000;fill-opacity:1;fill-rule:nonzero;stroke:none"
               transform="translate(48.09375,50)"><tspan
                 id="tspan164"
                 y="0"
                 x="0 27.179688 35.738281 52.664062 62.097656 71.804688 82.988281 94.28125 102.07422 110.63281 118.86328 137.8125 144.34766 155.53125 167.01562">Memorable Stays</tspan></text>
</g><g
             transform="matrix(2.3229654,0,0,2.3229654,566.18518,894.99677)"
             id="g168"><text
               id="text172"
               style="font-variant:normal;font-weight:normal;font-size:12px;font-family:OpenSans;-inkscape-font-specification:OpenSans-Regular;writing-mode:lr-tb;fill:#000000;fill-opacity:1;fill-rule:nonzero;stroke:none"
               transform="translate(4.203125,12)"><tspan
                 id="tspan170"
                 y="0"
                 x="0 10.677938 22.135172 33.47522 42.465656 50.793983 58.00317 68.733841 79.558266 88.548706 103.80282 111.01201 122.52198 133.34641 144.80363 153.13196 163.89778 171.02493">Short Term Rentals</tspan></text>
</g></g></g></g></g></svg>